#!OML:ASF I:\Random Stuff\random\construction\7_22_03\Session 2\subj1.ASF
:FULLY-SPECIFIED
:DEGREES
452
root -4.92813 17.9069 8.67445 -171.709 59.0565 -180.72
lowerback 5.50154 1.71369 5.42801
upperback -1.11733 2.68517 0.175435
thorax -4.00822 1.21027 -3.09547
lowerneck -17.4639 13.0032 13.0448
upperneck 36.2447 19.8456 -5.182
head 18.4266 9.66942 -0.0215955
rclavicle 3.42904e-014 2.62396e-014
rhumerus -30.7359 12.3524 -63.222
rradius 91.4617
rwrist -35.9073
rhand -20.8215 9.5718
rfingers 7.12502
rthumb 5.54667 -20.3356
lclavicle 3.42904e-014 2.62396e-014
lhumerus -16.3154 -23.3535 74.352
lradius 86.6889
lwrist 64.7641
lhand -10.9854 66.9346
lfingers 7.12502
lthumb -164.965 83.6313
rfemur -9.11834 6.69095 20.7001
rtibia 10.8506
rfoot -7.34584 -22.018
rtoes -7.16358
lfemur -27.044 -6.99441 -15.9907
ltibia 25.2011
lfoot -10.5659 9.66688
ltoes -15.5938
453
root -4.98882 17.9057 8.72049 -171.736 57.0571 -180.738
lowerback 5.55479 1.79005 5.41393
upperback -1.24172 2.7902 0.103224
thorax -4.15555 1.25474 -3.17625
lowerneck -17.0622 13.431 13.5308
upperneck 35.885 20.4684 -5.33645
head 18.305 9.98089 -0.0343091
rclavicle 1.94809e-014 -2.06736e-014
rhumerus -31.239 12.3545 -63.2097
rradius 91.7058
rwrist -35.7806
rhand -21.1311 9.7564
rfingers 7.12502
rthumb 5.24775 -20.1586
lclavicle 1.94809e-014 -2.06736e-014
lhumerus -16.5913 -23.5821 74.4107
lradius 86.6488
lwrist 64.0567
lhand -10.3831 66.8303
lfingers 7.12502
lthumb -164.385 83.7799
rfemur -9.04288 6.89216 20.7641
rtibia 10.8068
rfoot -7.2429 -24.0033
rtoes -5.27908
lfemur -26.5279 -5.34783 -16.5677
ltibia 25.8365
lfoot -10.6619 9.23447
ltoes -15.8633
454
root -5.04189 17.903 8.76074 -171.632 55.112 -180.584
lowerback 5.53572 1.9375 5.48408
upperback -1.34051 2.98987 0.0135889
thorax -4.22135 1.3468 -3.32636
lowerneck -16.7158 13.8672 14.1163
upperneck 35.5225 21.1056 -5.57044
head 18.2348 10.2956 -0.0828167
rclavicle -2.55438e-014 -5.64548e-014
rhumerus -31.859 12.0168 -63.1703
rradius 92.0349
rwrist -35.8318
rhand -20.9361 9.87843
rfingers 7.12502
rthumb 5.43605 -20.0318
lclavicle -2.55438e-014 -5.64548e-014
lhumerus -16.8096 -23.9735 74.456
lradius 86.5811
lwrist 63.1709
lhand -9.65561 66.6795
lfingers 7.12502
lthumb -163.685 83.9868
rfemur -8.91943 7.09853 20.9275
rtibia 10.7573
rfoot -7.35173 -25.9394
rtoes -3.25955
lfemur -26.0021 -3.674 -16.8843
ltibia 26.5217
lfoot -10.8418 9.1213
ltoes -17.3718
455
root -5.09187 17.9005 8.79674 -171.524 53.2241 -180.348
lowerback 5.5428 2.11896 5.54737
upperback -1.41981 3.23686 -0.0499983
thorax -4.27769 1.46353 -3.45011
lowerneck -16.1363 14.2527 14.7307
upperneck 34.7656 21.7101 -6.11031
head 17.9562 10.5757 -0.306128
rclavicle 1.6201e-014 3.18055e-015
rhumerus -32.4917 11.658 -63.1042
rradius 92.3777
rwrist -35.8858
rhand -20.6918 10.0708
rfingers 7.12502
rthumb 5.67191 -19.8333
lclavicle 1.6201e-014 3.18055e-015
lhumerus -17.0537 -24.372 74.5285
lradius 86.5403
lwrist 62.3536
lhand -9.00704 66.66
lfingers 7.12502
lthumb -163.06 84.0587
rfemur -8.75285 7.11313 21.1579
rtibia 10.7541
rfoot -7.6484 -27.6191
rtoes -1.10969
lfemur -25.4121 -2.09313 -16.9524
ltibia 27.1771
lfoot -11.0274 8.89846
ltoes -17.9548
456
root -5.14064 17.8946 8.82483 -171.595 51.2667 -180.19
lowerback 5.56993 2.24077 5.54589
upperback -1.4141 3.39901 -0.0840746
thorax -4.26913 1.54388 -3.49874
lowerneck -15.3939 14.6318 15.2927
upperneck 33.6568 22.3429 -6.89414
head 17.5087 10.8398 -0.638103
rclavicle 2.49475e-014 -1.59028e-015
rhumerus -33.0018 11.4891 -63.1161
rradius 92.7037
rwrist -35.6986
rhand -20.9378 10.2237
rfingers 7.12502
rthumb 5.43444 -19.6866
lclavicle 2.49475e-014 -1.59028e-015
lhumerus -17.2827 -24.626 74.6134
lradius 86.555
lwrist 61.7459
lhand -8.83489 66.7613
lfingers 7.12502
lthumb -162.895 83.9718
rfemur -8.45701 7.14918 21.3347
rtibia 10.7731
rfoot -8.07079 -29.3577
rtoes 1.51676
lfemur -24.7303 -1.11385 -16.8085
ltibia 27.7586
lfoot -11.0605 8.5082
ltoes -17.5193
457
root -5.19462 17.8872 8.84028 -171.818 49.3237 -180.165
lowerback 5.6002 2.32917 5.49076
upperback -1.34275 3.51031 -0.115608
thorax -4.20166 1.60349 -3.50876
lowerneck -14.9029 15.0392 15.7446
upperneck 32.8854 23.0259 -7.46965
head 17.2716 11.124 -0.814492
rclavicle 1.32192e-014 7.55382e-015
rhumerus -33.3418 11.402 -63.1287
rradius 92.9488
rwrist -35.6567
rhand -21.2082 10.4471
rfingers 7.12502
rthumb 5.17335 -19.4697
lclavicle 1.32192e-014 7.55382e-015
lhumerus -17.4161 -24.7575 74.7261
lradius 86.5525
lwrist 61.2925
lhand -9.24323 66.7504
lfingers 7.12502
lthumb -163.288 83.949
rfemur -8.15366 6.96678 21.3782
rtibia 10.8463
rfoot -8.46698 -30.8738
rtoes 3.68121
lfemur -23.9992 -0.692021 -16.5648
ltibia 28.2297
lfoot -10.954 8.01035
ltoes -16.6373
458
root -5.24784 17.8841 8.85292 -172.011 47.4269 -180.178
lowerback 5.60747 2.41602 5.32248
upperback -1.29187 3.6104 -0.148392
thorax -4.15018 1.65937 -3.4554
lowerneck -14.6178 15.4482 16.2479
upperneck 32.492 23.7326 -7.90759
head 17.2776 11.4289 -0.897297
rclavicle -1.64991e-014 -5.56597e-015
rhumerus -33.6101 11.3252 -63.1714
rradius 93.1032
rwrist -35.845
rhand -21.2094 10.7846
rfingers 7.12502
rthumb 5.17218 -19.1323
lclavicle -1.64991e-014 -5.56597e-015
lhumerus -17.5287 -24.8463 74.827
lradius 86.5249
lwrist 60.8102
lhand -9.85044 66.6202
lfingers 7.12502
lthumb -163.872 84.0308
rfemur -7.94111 6.49637 21.394
rtibia 10.9743
rfoot -8.86558 -32.0927
rtoes 5.43025
lfemur -23.3362 -0.234786 -16.2517
ltibia 28.5592
lfoot -10.8318 7.01745
ltoes -15.8107
459
root -5.29924 17.8835 8.8623 -172.122 45.5785 -180.164
lowerback 5.58926 2.49595 5.14396
upperback -1.27555 3.69813 -0.222928
thorax -4.11994 1.70731 -3.43834
lowerneck -14.336 15.8373 16.8161
upperneck 32.1085 24.408 -8.36764
head 17.309 11.7248 -0.999139
rclavicle -1.34677e-014 -2.5842e-014
rhumerus -33.8792 11.2272 -63.3873
rradius 93.2127
rwrist -35.9699
rhand -21.1502 11.0485
rfingers 7.12502
rthumb 5.22929 -18.8669
lclavicle -1.34677e-014 -2.5842e-014
lhumerus -17.7041 -24.9493 74.8036
lradius 86.5365
lwrist 60.4289
lhand -10.0684 66.5978
lfingers 7.12502
lthumb -164.082 84.0364
rfemur -7.74893 5.89419 21.4244
rtibia 11.0615
rfoot -9.40855 -33.0804
rtoes 7.51747
lfemur -22.7743 0.198894 -15.8136
ltibia 28.7478
lfoot -10.6956 6.04937
ltoes -15.7127
460
root -5.35532 17.8841 8.86224 -172.057 43.6919 -180.109
lowerback 5.47047 2.54846 5.0463
upperback -1.34113 3.75185 -0.312194
thorax -4.11603 1.73407 -3.47603
lowerneck -14.0831 16.1363 17.2226
upperneck 31.7525 24.9318 -8.69793
head 17.2894 11.9591 -1.06458
rclavicle -3.47873e-015 -1.98785e-015
rhumerus -34.1332 11.1627 -63.6908
rradius 93.2378
rwrist -36.0022
rhand -21.2261 11.2141
rfingers 7.12502
rthumb 5.15602 -18.7032
lclavicle -3.47873e-015 -1.98785e-015
lhumerus -17.9501 -24.855 74.7962
lradius 86.4059
lwrist 59.9733
lhand -9.33526 66.9573
lfingers 7.12502
lthumb -163.376 83.7347
rfemur -7.65113 5.38554 21.4273
rtibia 11.0545
rfoot -10.0058 -34.1049
rtoes 9.63335
lfemur -22.4299 0.428304 -15.2677
ltibia 28.7774
lfoot -10.3643 5.51576
ltoes -15.5913
461
root -5.40991 17.8847 8.85652 -172.078 41.8384 -180.111
lowerback 5.42059 2.62917 4.85252
upperback -1.41464 3.84033 -0.40704
thorax -4.16161 1.77874 -3.47273
lowerneck -13.9966 16.2939 17.4712
upperneck 31.564 25.2447 -8.90209
head 17.309 12.1008 -1.09753
rclavicle 3.11098e-014 1.59028e-015
rhumerus -34.3703 11.0652 -63.9985
rradius 93.1914
rwrist -36.0722
rhand -21.3736 11.2337
rfingers 7.12502
rthumb 5.01359 -18.687
lclavicle 3.11098e-014 1.59028e-015
lhumerus -18.1888 -24.7488 74.9063
lradius 86.2044
lwrist 59.7018
lhand -9.18482 67.6528
lfingers 7.12502
lthumb -163.231 83.0513
rfemur -7.35694 5.36334 21.3498
rtibia 10.8252
rfoot -10.6918 -35.5638
rtoes 12.0648
lfemur -22.0672 0.614433 -14.7379
ltibia 28.6713
lfoot -10.0585 5.30363
ltoes -15.6665
462
root -5.46315 17.887 8.84537 -172.191 40.0301 -180.287
lowerback 5.31939 2.73105 4.48266
upperback -1.48239 3.93848 -0.573024
thorax -4.17771 1.83289 -3.44237
lowerneck -13.7265 16.4351 17.4498
upperneck 30.9217 25.3655 -8.93508
head 16.9392 12.1664 -1.11994
rclavicle 7.2457e-014 2.78299e-015
rhumerus -34.5825 10.8892 -64.406
rradius 93.0603
rwrist -36.1099
rhand -21.4147 11.2428
rfingers 7.12502
rthumb 4.97389 -18.6788
lclavicle 7.2457e-014 2.78299e-015
lhumerus -18.4158 -25.0207 74.9519
lradius 86.1798
lwrist 60.1805
lhand -11.1744 68.1981
lfingers 7.12502
lthumb -165.147 82.3542
rfemur -6.85355 5.59014 21.1044
rtibia 10.2137
rfoot -10.8798 -37.2349
rtoes 13.6192
lfemur -21.7712 0.713325 -14.3413
ltibia 28.4698
lfoot -10.0722 5.62568
ltoes -16.102
463
root -5.51962 17.8874 8.82573 -172.202 38.2171 -180.23
lowerback 5.29524 2.80804 4.318
upperback -1.55983 4.02417 -0.712725
thorax -4.2379 1.87484 -3.50331
lowerneck -13.6051 16.4891 17.5969
upperneck 30.5981 25.4573 -9.07808
head 16.817 12.2194 -1.18669
rclavicle -8.89561e-014 -1.51076e-014
rhumerus -34.8175 10.7263 -64.9116
rradius 92.8146
rwrist -35.998
rhand -21.4383 11.3108
rfingers 7.12502
rthumb 4.95119 -18.6113
lclavicle -8.89561e-014 -1.51076e-014
lhumerus -18.6838 -25.39 74.8969
lradius 86.1172
lwrist 60.4924
lhand -12.8574 68.3524
lfingers 7.12502
lthumb -166.769 82.0875
rfemur -6.05483 4.91508 21.1525
rtibia 9.20823
rfoot -10.4184 -37.991
rtoes 13.7959
lfemur -21.5108 0.69547 -13.7587
ltibia 28.1905
lfoot -10.2132 6.57654
ltoes -16.0208
464
root -5.57848 17.8844 8.79896 -172.232 36.3184 -179.845
lowerback 5.53526 2.82233 4.43944
upperback -1.58357 4.06215 -0.746755
thorax -4.38472 1.88492 -3.62536
lowerneck -13.7866 16.4639 17.6678
upperneck 30.6443 25.5049 -9.17492
head 16.9193 12.2361 -1.19778
rclavicle -2.85753e-015 3.77691e-015
rhumerus -35.0107 10.5821 -65.4742
rradius 92.4528
rwrist -35.8242
rhand -21.5351 11.4105
rfingers 7.12502
rthumb 4.85772 -18.5138
lclavicle -2.85753e-015 3.77691e-015
lhumerus -18.967 -25.5378 74.9274
lradius 85.909
lwrist 60.3159
lhand -13.3415 68.6097
lfingers 7.12502
lthumb -167.236 81.8005
rfemur -4.77288 4.19064 21.5006
rtibia 7.78637
rfoot -10.6797 -38.7237
rtoes 16.0723
lfemur -21.1276 0.544491 -12.9022
ltibia 27.8407
lfoot -10.346 8.13413
ltoes -15.2035
465
root -5.63797 17.8892 8.76627 -172.241 34.467 -179.648
lowerback 5.62391 2.81019 4.33824
upperback -1.62668 4.04126 -0.798121
thorax -4.48482 1.87278 -3.62793
lowerneck -13.9906 16.4374 17.6391
upperneck 30.5988 25.499 -9.22546
head 16.9446 12.2225 -1.19614
rclavicle -3.47873e-014 1.31198e-014
rhumerus -35.0382 10.5261 -66.0765
rradius 91.9805
rwrist -35.639
rhand -21.6047 11.5072
rfingers 7.12502
rthumb 4.79049 -18.4186
lclavicle -3.47873e-014 1.31198e-014
lhumerus -19.2521 -25.4001 75.0323
lradius 85.6703
lwrist 59.9245
lhand -13.3826 68.8846
lfingers 7.12502
lthumb -167.276 81.5231
rfemur -3.27561 3.49222 21.6137
rtibia 5.70989
rfoot -11.4656 -39.4252
rtoes 20.5256
lfemur -20.9145 0.585999 -12.2616
ltibia 27.4719
lfoot -10.4858 10.0184
ltoes -13.2629
